<svg xmlns="http://www.w3.org/2000/svg" viewBox="0 0 236 252">
<path d="M101.15 1.49998V0.499985H100.471L100.221 1.13085L101.15 1.49998ZM135.45 1.49998L136.38 1.13312L136.131 0.499985H135.45V1.49998ZM233.45 250V251H234.919L234.38 249.633L233.45 250ZM192.15 250L191.218 250.362L191.466 251H192.15V250ZM165.9 182.45L166.832 182.088L166.584 181.45H165.9V182.45ZM70 182.45V181.45H69.3124L69.0663 182.092L70 182.45ZM44.1 250V251H44.7876L45.0337 250.358L44.1 250ZM2.45 250L1.52062 249.631L0.976827 251H2.45V250ZM158.2 153.4V154.4H159.641L159.137 153.05L158.2 153.4ZM118.3 46.65L119.237 46.2999L118.316 43.8369L117.367 46.2892L118.3 46.65ZM77 153.4L76.0674 153.039L75.5409 154.4H77V153.4ZM101.15 2.49998H135.45V0.499985H101.15V2.49998ZM134.52 1.86685L232.52 250.367L234.38 249.633L136.38 1.13312L134.52 1.86685ZM233.45 249H192.15V251H233.45V249ZM193.082 249.638L166.832 182.088L164.968 182.812L191.218 250.362L193.082 249.638ZM165.9 181.45H70V183.45H165.9V181.45ZM69.0663 182.092L43.1663 249.642L45.0337 250.358L70.9337 182.808L69.0663 182.092ZM44.1 249H2.45V251H44.1V249ZM3.37938 250.369L102.079 1.86912L100.221 1.13085L1.52062 249.631L3.37938 250.369ZM159.137 153.05L119.237 46.2999L117.363 47.0001L157.263 153.75L159.137 153.05ZM117.367 46.2892L76.0674 153.039L77.9326 153.761L119.233 47.0108L117.367 46.2892ZM77 154.4H158.2V152.4H77V154.4Z" fill="white" fill-opacity="0.19"/>
</svg>
