<!DOCTYPE svg PUBLIC "-//W3C//DTD SVG 1.1//EN" "http://www.w3.org/Graphics/SVG/1.1/DTD/svg11.dtd">
<!-- Uploaded to: SVG Repo, www.svgrepo.com, Transformed by: SVG Repo Mixer Tools -->
<svg height="91px" width="91px" version="1.1" id="Layer_1" xmlns="http://www.w3.org/2000/svg" xmlns:xlink="http://www.w3.org/1999/xlink" viewBox="0 0 448.109 448.109" xml:space="preserve" fill="#000000">
<g id="SVGRepo_bgCarrier" stroke-width="0"/>
<g id="SVGRepo_tracerCarrier" stroke-linecap="round" stroke-linejoin="round"/>
<g id="SVGRepo_iconCarrier"> <g transform="translate(0 -1020.36)" shape-rendering="auto" image-rendering="auto" color-rendering="auto" color-interpolation="sRGB"> <path style="fill:#5A3392;" d="M295.334,1308.429c-4.117,0.412-7.241,3.895-7.205,8.031v143.977 c-0.017,4.396,3.517,7.982,7.913,8.031h144.094c4.396-0.049,7.93-3.635,7.913-8.031v-143.977c0.017-4.396-3.517-7.982-7.913-8.031 H296.043C295.806,1308.42,295.57,1308.42,295.334,1308.429L295.334,1308.429z"/> <path style="fill:#EE746C;" d="M304.133,1324.429h127.913v128.031H304.133V1324.429z"/> <path style="fill:#FB9761;" d="M316.09,1336.398h104v104.096h-104V1336.398z"/> <path style="fill:#5A3392;" d="M8.09,1020.36c-4.419-0.017-8.014,3.552-8.031,7.97c0,0.021,0,0.04,0,0.061v143.979 c-0.017,4.418,3.552,8.014,7.97,8.031c0.02,0,0.041,0,0.061,0h143.976c4.419,0.018,8.014-3.551,8.031-7.971c0-0.02,0-0.041,0-0.061 v-143.978c0.016-4.419-3.553-8.014-7.971-8.03c-0.02,0-0.04,0-0.06,0L8.09,1020.36L8.09,1020.36z"/> <path style="fill:#EE746C;" d="M16.121,1036.422h127.913v128.031H16.121L16.121,1036.422L16.121,1036.422z"/> <path style="fill:#FB9761;" d="M28.078,1048.39h104v104.096h-104V1048.39z"/> <g> <path style="fill:#FFFFFF;" d="M55.334,1068.429c-4.4,0.406-7.637,4.303-7.23,8.703c0.175,1.896,1.022,3.67,2.387,4.998 l47.835,47.836c3.131,3.131,8.208,3.131,11.339,0c3.131-3.133,3.131-8.209-0.001-11.34l0,0l-47.835-47.836 c-1.695-1.732-4.084-2.602-6.496-2.365L55.334,1068.429z"/> <path style="fill:#FFFFFF;" d="M103.05,1068.429c-1.797,0.23-3.463,1.064-4.725,2.365l-47.835,47.836 c-3.106,3.156-3.067,8.232,0.089,11.338c3.121,3.072,8.129,3.072,11.25,0l47.835-47.836c3.188-3.059,3.293-8.125,0.233-11.313 c-1.77-1.844-4.314-2.732-6.847-2.389V1068.429z"/> </g> <path style="fill:#5A3392;" d="M152.066,1020.36c-4.419-0.017-8.015,3.552-8.032,7.97c0,0.021,0,0.04,0,0.061v143.979 c-0.017,4.418,3.552,8.014,7.97,8.031c0.02,0,0.041,0,0.061,0h143.976c4.419,0.018,8.015-3.551,8.032-7.971c0-0.02,0-0.041,0-0.061 v-143.978c0.016-4.419-3.553-8.014-7.971-8.03c-0.02,0-0.04,0-0.06,0L152.066,1020.36L152.066,1020.36z"/> <path style="fill:#FFFFFF;" d="M160.098,1036.422h128.031v128.031H160.098V1036.422L160.098,1036.422z"/> <path style="fill:#5A3392;" d="M296.043,1020.36c-4.396,0.048-7.93,3.634-7.913,8.03v143.979c-0.017,4.396,3.517,7.982,7.913,8.031 h144.094c4.396-0.049,7.93-3.635,7.913-8.031v-143.978c0.016-4.396-3.517-7.982-7.913-8.03L296.043,1020.36L296.043,1020.36z"/> <path style="fill:#29A3EC;" d="M304.074,1036.422h128.031v128.031H304.074V1036.422L304.074,1036.422z"/> <path style="fill:#5A3392;" d="M7.263,1164.455c-4.072,0.406-7.181,3.822-7.205,7.914v144.094c0.049,4.396,3.635,7.93,8.031,7.912 h143.976c4.396,0.018,7.983-3.516,8.031-7.912v-144.094c-0.048-4.396-3.634-7.932-8.031-7.914H8.09 C7.814,1164.441,7.539,1164.441,7.263,1164.455L7.263,1164.455z"/> <path style="fill:#FFFFFF;" d="M16.121,1180.398h127.913v128.031H16.121C16.121,1308.429,16.121,1180.398,16.121,1180.398z"/> <path style="fill:#5A3392;" d="M151.239,1164.455c-4.072,0.406-7.181,3.822-7.205,7.914v144.094 c0.049,4.396,3.635,7.93,8.032,7.912h143.976c4.396,0.018,7.983-3.516,8.032-7.912v-144.094c-0.048-4.396-3.634-7.932-8.032-7.914 H152.066C151.791,1164.441,151.515,1164.441,151.239,1164.455L151.239,1164.455z"/> <path style="fill:#29A3EC;" d="M160.098,1180.398h128.031v128.031H160.098V1180.398z"/> <path style="fill:#5A3392;" d="M295.334,1164.455c-4.072,0.406-7.181,3.822-7.205,7.914v144.094 c0.048,4.35,3.563,7.865,7.913,7.912h144.094c4.35-0.047,7.865-3.563,7.913-7.912v-144.094c-0.047-4.352-3.562-7.867-7.913-7.914 H296.043C295.806,1164.445,295.57,1164.445,295.334,1164.455L295.334,1164.455z"/> <path style="fill:#FFFFFF;" d="M304.074,1180.398h128.031v128.031H304.074V1180.398z"/> <path style="fill:#5A3392;" d="M7.263,1308.429c-4.117,0.412-7.241,3.895-7.205,8.031v143.977c-0.017,4.418,3.552,8.014,7.97,8.031 c0.02,0,0.041,0,0.061,0h143.976c4.419,0.018,8.014-3.551,8.031-7.971c0-0.02,0-0.041,0-0.061v-143.977 c0.017-4.418-3.552-8.014-7.97-8.031c-0.02,0-0.041,0-0.061,0H8.09C7.814,1308.416,7.539,1308.416,7.263,1308.429L7.263,1308.429z"/> <path style="fill:#29A3EC;" d="M16.121,1324.375h127.913v128.031H16.121C16.121,1452.406,16.121,1324.375,16.121,1324.375z"/> <path style="fill:#5A3392;" d="M151.239,1308.429c-4.117,0.412-7.241,3.895-7.205,8.031v143.977 c-0.017,4.418,3.552,8.014,7.97,8.031c0.02,0,0.041,0,0.061,0h143.976c4.419,0.018,8.015-3.551,8.032-7.971c0-0.02,0-0.041,0-0.061 v-143.977c0.017-4.418-3.552-8.014-7.97-8.031c-0.02,0-0.041,0-0.061,0H152.066 C151.791,1308.416,151.515,1308.416,151.239,1308.429L151.239,1308.429z"/> <path style="fill:#FFFFFF;" d="M160.098,1324.375h128.031v128.031H160.098V1324.375z"/> <path style="fill:#3CDEF6;" d="M316.09,1048.437h104v104h-104V1048.437z"/> <path style="fill:#5A3392;" d="M368.09,1068.429c-17.578,0-32.008,14.43-32.008,32.008c0,17.578,14.429,32.008,32.008,32.008 c17.578,0,32.008-14.43,32.008-32.008C400.097,1082.859,385.668,1068.429,368.09,1068.429L368.09,1068.429z"/> <path style="fill:#FFFFFF;" d="M368.09,1084.375c8.931,0,15.945,7.133,15.945,16.064s-7.013,15.945-15.945,15.945 c-8.931,0-16.063-7.014-16.063-15.945C352.027,1091.507,359.159,1084.375,368.09,1084.375z"/> <path style="fill:#3CDEF6;" d="M172.113,1192.414h104v104h-104V1192.414z"/> <path style="fill:#5A3392;" d="M224.113,1212.406c-17.578,0-32.008,14.43-32.008,32.008c0,17.58,14.429,32.008,32.008,32.008 s32.008-14.43,32.008-32.008S241.692,1212.406,224.113,1212.406z"/> <path style="fill:#FFFFFF;" d="M224.113,1228.468c8.931,0.002,15.945,7.014,15.945,15.945s-7.014,15.945-15.945,15.945 c-8.931,0-16.063-7.014-16.063-15.945C208.051,1235.482,215.182,1228.47,224.113,1228.468z"/> <path style="fill:#3CDEF6;" d="M28.078,1336.39h104v104h-104V1336.39z"/> <path style="fill:#5A3392;" d="M80.137,1356.382c-17.578,0-32.008,14.43-32.008,32.01c0,17.578,14.429,32.006,32.008,32.006 c17.578,0,31.89-14.43,31.89-32.006C112.027,1370.812,97.715,1356.382,80.137,1356.382z"/> <g> <path style="fill:#FFFFFF;" d="M80.137,1372.447c8.931,0,15.945,7.014,15.945,15.945c0,8.932-7.014,16.063-15.945,16.063 c-8.931,0-16.063-7.131-16.063-16.063S71.206,1372.447,80.137,1372.447z"/> <g> <path style="fill:#FFFFFF;" d="M344.113,1356.382c-4.419-0.033-8.027,3.523-8.06,7.941c-0.016,2.223,0.892,4.352,2.508,5.877 l47.835,47.836c2.889,3.344,7.941,3.713,11.285,0.824c3.344-2.891,3.712-7.941,0.823-11.285 c-0.273-0.316-0.569-0.609-0.888-0.879l-47.835-47.834C348.302,1357.308,346.259,1356.416,344.113,1356.382L344.113,1356.382z"/> <path style="fill:#FFFFFF;" d="M391.83,1356.382c-2.063,0.094-4.01,0.982-5.433,2.48l-47.835,47.836 c-3.377,2.85-3.804,7.898-0.954,11.275c2.85,3.377,7.898,3.803,11.275,0.953c0.323-0.271,0.624-0.57,0.9-0.891l47.835-47.834 c3.216-3.029,3.367-8.094,0.337-11.311c-1.584-1.68-3.816-2.594-6.124-2.508L391.83,1356.382z"/> </g> </g> <g> <path style="fill:#EBFEFF;" d="M172.113,1336.343h104v104.094h-104V1336.343z"/> <path style="fill:#EBFEFF;" d="M316.09,1192.367h104v104.096h-104V1192.367z"/> <path style="fill:#EBFEFF;" d="M28.078,1192.367h104v104.096h-104V1192.367z"/> <path style="fill:#EBFEFF;" d="M172.113,1048.39h104v104.096h-104V1048.39z"/> </g> </g> </g>
</svg>